<svg xmlns="http://www.w3.org/2000/svg" xmlns:xlink="http://www.w3.org/1999/xlink" width="500" zoomAndPan="magnify" viewBox="0 0 375 374.999991" height="500" preserveAspectRatio="xMidYMid meet" version="1.0"><defs><g/><clipPath id="ceccc0bedb"><path d="M 11 9.8125 L 364 9.8125 L 364 160 L 11 160 Z M 11 9.8125 " clip-rule="nonzero"/></clipPath><clipPath id="bddacb35cb"><path d="M 11 215 L 364 215 L 364 365.3125 L 11 365.3125 Z M 11 215 " clip-rule="nonzero"/></clipPath><clipPath id="c72cbf3f1f"><path d="M 9.8125 171 L 365.3125 171 L 365.3125 204 L 9.8125 204 Z M 9.8125 171 " clip-rule="nonzero"/></clipPath></defs><g fill="#ffffff" fill-opacity="1"><g transform="translate(94.171053, 284.593239)"><g><path d="M 15.5625 0 L 8.75 -22.234375 L 8.5625 -22.234375 C 8.59375 -21.703125 8.632812 -20.90625 8.6875 -19.84375 C 8.75 -18.78125 8.804688 -17.644531 8.859375 -16.4375 C 8.910156 -15.238281 8.9375 -14.15625 8.9375 -13.1875 L 8.9375 0 L 3.5625 0 L 3.5625 -28.34375 L 11.75 -28.34375 L 18.453125 -6.671875 L 18.578125 -6.671875 L 25.6875 -28.34375 L 33.875 -28.34375 L 33.875 0 L 28.265625 0 L 28.265625 -13.421875 C 28.265625 -14.304688 28.28125 -15.332031 28.3125 -16.5 C 28.34375 -17.664062 28.382812 -18.773438 28.4375 -19.828125 C 28.488281 -20.878906 28.53125 -21.671875 28.5625 -22.203125 L 28.375 -22.203125 L 21.078125 0 Z M 15.5625 0 "/></g></g></g><g fill="#ffffff" fill-opacity="1"><g transform="translate(131.594936, 284.593239)"><g><path d="M 29.296875 -14.203125 C 29.296875 -12.023438 29.023438 -10.039062 28.484375 -8.25 C 27.941406 -6.457031 27.113281 -4.914062 26 -3.625 C 24.894531 -2.332031 23.492188 -1.335938 21.796875 -0.640625 C 20.109375 0.046875 18.109375 0.390625 15.796875 0.390625 C 13.484375 0.390625 11.476562 0.046875 9.78125 -0.640625 C 8.09375 -1.335938 6.695312 -2.332031 5.59375 -3.625 C 4.488281 -4.914062 3.664062 -6.457031 3.125 -8.25 C 2.582031 -10.050781 2.3125 -12.050781 2.3125 -14.25 C 2.3125 -17.1875 2.789062 -19.742188 3.75 -21.921875 C 4.71875 -24.097656 6.203125 -25.785156 8.203125 -26.984375 C 10.203125 -28.179688 12.75 -28.78125 15.84375 -28.78125 C 18.914062 -28.78125 21.441406 -28.179688 23.421875 -26.984375 C 25.410156 -25.785156 26.882812 -24.09375 27.84375 -21.90625 C 28.8125 -19.71875 29.296875 -17.148438 29.296875 -14.203125 Z M 8.609375 -14.203125 C 8.609375 -12.234375 8.851562 -10.53125 9.34375 -9.09375 C 9.84375 -7.664062 10.625 -6.566406 11.6875 -5.796875 C 12.75 -5.035156 14.117188 -4.65625 15.796875 -4.65625 C 17.503906 -4.65625 18.882812 -5.035156 19.9375 -5.796875 C 21 -6.566406 21.769531 -7.664062 22.25 -9.09375 C 22.738281 -10.53125 22.984375 -12.234375 22.984375 -14.203125 C 22.984375 -17.179688 22.425781 -19.519531 21.3125 -21.21875 C 20.207031 -22.925781 18.382812 -23.78125 15.84375 -23.78125 C 14.144531 -23.78125 12.757812 -23.394531 11.6875 -22.625 C 10.625 -21.863281 9.84375 -20.769531 9.34375 -19.34375 C 8.851562 -17.914062 8.609375 -16.203125 8.609375 -14.203125 Z M 8.609375 -14.203125 "/></g></g></g><g fill="#ffffff" fill-opacity="1"><g transform="translate(163.185263, 284.593239)"><g><path d="M 11.828125 -28.34375 C 14.398438 -28.34375 16.519531 -28.03125 18.1875 -27.40625 C 19.863281 -26.789062 21.109375 -25.851562 21.921875 -24.59375 C 22.734375 -23.34375 23.140625 -21.765625 23.140625 -19.859375 C 23.140625 -18.554688 22.894531 -17.421875 22.40625 -16.453125 C 21.914062 -15.484375 21.269531 -14.660156 20.46875 -13.984375 C 19.664062 -13.316406 18.800781 -12.769531 17.875 -12.34375 L 26.203125 0 L 19.546875 0 L 12.78125 -10.875 L 9.578125 -10.875 L 9.578125 0 L 3.5625 0 L 3.5625 -28.34375 Z M 11.40625 -23.421875 L 9.578125 -23.421875 L 9.578125 -15.765625 L 11.515625 -15.765625 C 13.503906 -15.765625 14.925781 -16.097656 15.78125 -16.765625 C 16.644531 -17.429688 17.078125 -18.410156 17.078125 -19.703125 C 17.078125 -21.046875 16.613281 -22 15.6875 -22.5625 C 14.769531 -23.132812 13.34375 -23.421875 11.40625 -23.421875 Z M 11.40625 -23.421875 "/></g></g></g><g fill="#ffffff" fill-opacity="1"><g transform="translate(189.387791, 284.593239)"><g><path d="M 14.328125 -15.921875 L 25.578125 -15.921875 L 25.578125 -1.21875 C 24.085938 -0.726562 22.539062 -0.335938 20.9375 -0.046875 C 19.332031 0.242188 17.515625 0.390625 15.484375 0.390625 C 12.671875 0.390625 10.28125 -0.164062 8.3125 -1.28125 C 6.351562 -2.394531 4.863281 -4.035156 3.84375 -6.203125 C 2.820312 -8.367188 2.3125 -11.035156 2.3125 -14.203125 C 2.3125 -17.179688 2.878906 -19.753906 4.015625 -21.921875 C 5.160156 -24.097656 6.832031 -25.78125 9.03125 -26.96875 C 11.238281 -28.15625 13.9375 -28.75 17.125 -28.75 C 18.613281 -28.75 20.085938 -28.585938 21.546875 -28.265625 C 23.015625 -27.941406 24.34375 -27.519531 25.53125 -27 L 23.53125 -22.203125 C 22.664062 -22.640625 21.675781 -23.003906 20.5625 -23.296875 C 19.457031 -23.597656 18.296875 -23.75 17.078125 -23.75 C 15.335938 -23.75 13.820312 -23.347656 12.53125 -22.546875 C 11.25 -21.742188 10.253906 -20.617188 9.546875 -19.171875 C 8.835938 -17.734375 8.484375 -16.039062 8.484375 -14.09375 C 8.484375 -12.25 8.734375 -10.609375 9.234375 -9.171875 C 9.742188 -7.742188 10.539062 -6.625 11.625 -5.8125 C 12.71875 -5.007812 14.132812 -4.609375 15.875 -4.609375 C 16.726562 -4.609375 17.445312 -4.648438 18.03125 -4.734375 C 18.625 -4.816406 19.179688 -4.90625 19.703125 -5 L 19.703125 -10.921875 L 14.328125 -10.921875 Z M 14.328125 -15.921875 "/></g></g></g><g fill="#ffffff" fill-opacity="1"><g transform="translate(218.12918, 284.593239)"><g><path d="M 20.921875 0 L 18.859375 -6.75 L 8.53125 -6.75 L 6.46875 0 L 0 0 L 10 -28.453125 L 17.34375 -28.453125 L 27.390625 0 Z M 17.421875 -11.78125 L 15.375 -18.375 C 15.238281 -18.8125 15.066406 -19.375 14.859375 -20.0625 C 14.648438 -20.757812 14.4375 -21.46875 14.21875 -22.1875 C 14.007812 -22.90625 13.835938 -23.53125 13.703125 -24.0625 C 13.578125 -23.53125 13.398438 -22.875 13.171875 -22.09375 C 12.941406 -21.3125 12.722656 -20.570312 12.515625 -19.875 C 12.316406 -19.175781 12.171875 -18.675781 12.078125 -18.375 L 10.046875 -11.78125 Z M 17.421875 -11.78125 "/></g></g></g><g fill="#ffffff" fill-opacity="1"><g transform="translate(245.513928, 284.593239)"><g><path d="M 28.71875 0 L 21.078125 0 L 8.75 -21.4375 L 8.5625 -21.4375 C 8.613281 -20.550781 8.660156 -19.65625 8.703125 -18.75 C 8.742188 -17.84375 8.78125 -16.9375 8.8125 -16.03125 C 8.851562 -15.132812 8.894531 -14.238281 8.9375 -13.34375 L 8.9375 0 L 3.5625 0 L 3.5625 -28.34375 L 11.140625 -28.34375 L 23.453125 -7.109375 L 23.59375 -7.109375 C 23.5625 -7.992188 23.523438 -8.867188 23.484375 -9.734375 C 23.453125 -10.597656 23.421875 -11.460938 23.390625 -12.328125 C 23.359375 -13.191406 23.328125 -14.054688 23.296875 -14.921875 L 23.296875 -28.34375 L 28.71875 -28.34375 Z M 28.71875 0 "/></g></g></g><g fill="#ffffff" fill-opacity="1"><g transform="translate(149.540049, 307.789139)"><g><path d="M 9.921875 -3.84375 C 9.921875 -3.03125 9.722656 -2.316406 9.328125 -1.703125 C 8.929688 -1.097656 8.351562 -0.628906 7.59375 -0.296875 C 6.832031 0.0234375 5.90625 0.1875 4.8125 0.1875 C 4.332031 0.1875 3.863281 0.15625 3.40625 0.09375 C 2.945312 0.03125 2.503906 -0.0625 2.078125 -0.1875 C 1.660156 -0.3125 1.265625 -0.460938 0.890625 -0.640625 L 0.890625 -3.375 C 1.546875 -3.082031 2.226562 -2.816406 2.9375 -2.578125 C 3.644531 -2.347656 4.347656 -2.234375 5.046875 -2.234375 C 5.523438 -2.234375 5.910156 -2.296875 6.203125 -2.421875 C 6.492188 -2.554688 6.707031 -2.734375 6.84375 -2.953125 C 6.976562 -3.171875 7.046875 -3.421875 7.046875 -3.703125 C 7.046875 -4.054688 6.925781 -4.351562 6.6875 -4.59375 C 6.457031 -4.84375 6.140625 -5.070312 5.734375 -5.28125 C 5.328125 -5.5 4.867188 -5.734375 4.359375 -5.984375 C 4.035156 -6.140625 3.679688 -6.320312 3.296875 -6.53125 C 2.921875 -6.75 2.5625 -7.015625 2.21875 -7.328125 C 1.875 -7.648438 1.59375 -8.035156 1.375 -8.484375 C 1.15625 -8.941406 1.046875 -9.488281 1.046875 -10.125 C 1.046875 -10.945312 1.234375 -11.648438 1.609375 -12.234375 C 1.992188 -12.828125 2.539062 -13.28125 3.25 -13.59375 C 3.957031 -13.90625 4.789062 -14.0625 5.75 -14.0625 C 6.46875 -14.0625 7.15625 -13.976562 7.8125 -13.8125 C 8.46875 -13.644531 9.148438 -13.40625 9.859375 -13.09375 L 8.921875 -10.796875 C 8.273438 -11.054688 7.695312 -11.253906 7.1875 -11.390625 C 6.6875 -11.535156 6.175781 -11.609375 5.65625 -11.609375 C 5.289062 -11.609375 4.976562 -11.550781 4.71875 -11.4375 C 4.457031 -11.320312 4.257812 -11.15625 4.125 -10.9375 C 3.988281 -10.726562 3.921875 -10.488281 3.921875 -10.21875 C 3.921875 -9.882812 4.015625 -9.601562 4.203125 -9.375 C 4.398438 -9.15625 4.691406 -8.941406 5.078125 -8.734375 C 5.472656 -8.523438 5.960938 -8.28125 6.546875 -8 C 7.253906 -7.664062 7.859375 -7.316406 8.359375 -6.953125 C 8.859375 -6.585938 9.242188 -6.160156 9.515625 -5.671875 C 9.785156 -5.179688 9.921875 -4.570312 9.921875 -3.84375 Z M 9.921875 -3.84375 "/></g></g></g><g fill="#ffffff" fill-opacity="1"><g transform="translate(160.235101, 307.789139)"><g><path d="M 7.09375 0 L 4.15625 0 L 4.15625 -11.421875 L 0.390625 -11.421875 L 0.390625 -13.859375 L 10.859375 -13.859375 L 10.859375 -11.421875 L 7.09375 -11.421875 Z M 7.09375 0 "/></g></g></g><g fill="#ffffff" fill-opacity="1"><g transform="translate(171.480077, 307.789139)"><g><path d="M 13.03125 -13.859375 L 13.03125 -4.890625 C 13.03125 -3.941406 12.816406 -3.082031 12.390625 -2.3125 C 11.972656 -1.539062 11.335938 -0.929688 10.484375 -0.484375 C 9.640625 -0.0351562 8.570312 0.1875 7.28125 0.1875 C 5.445312 0.1875 4.050781 -0.28125 3.09375 -1.21875 C 2.132812 -2.15625 1.65625 -3.394531 1.65625 -4.9375 L 1.65625 -13.859375 L 4.578125 -13.859375 L 4.578125 -5.375 C 4.578125 -4.226562 4.8125 -3.425781 5.28125 -2.96875 C 5.75 -2.507812 6.441406 -2.28125 7.359375 -2.28125 C 8.003906 -2.28125 8.523438 -2.390625 8.921875 -2.609375 C 9.328125 -2.828125 9.625 -3.164062 9.8125 -3.625 C 10 -4.09375 10.09375 -4.679688 10.09375 -5.390625 L 10.09375 -13.859375 Z M 13.03125 -13.859375 "/></g></g></g><g fill="#ffffff" fill-opacity="1"><g transform="translate(186.15733, 307.789139)"><g><path d="M 13.25 -7.0625 C 13.25 -5.5 12.945312 -4.191406 12.34375 -3.140625 C 11.75 -2.097656 10.882812 -1.3125 9.75 -0.78125 C 8.625 -0.257812 7.265625 0 5.671875 0 L 1.75 0 L 1.75 -13.859375 L 6.09375 -13.859375 C 7.550781 -13.859375 8.8125 -13.597656 9.875 -13.078125 C 10.945312 -12.566406 11.773438 -11.804688 12.359375 -10.796875 C 12.953125 -9.796875 13.25 -8.550781 13.25 -7.0625 Z M 10.1875 -6.984375 C 10.1875 -8.015625 10.035156 -8.859375 9.734375 -9.515625 C 9.441406 -10.171875 9.003906 -10.65625 8.421875 -10.96875 C 7.835938 -11.289062 7.113281 -11.453125 6.25 -11.453125 L 4.6875 -11.453125 L 4.6875 -2.421875 L 5.953125 -2.421875 C 7.378906 -2.421875 8.441406 -2.800781 9.140625 -3.5625 C 9.835938 -4.332031 10.1875 -5.472656 10.1875 -6.984375 Z M 10.1875 -6.984375 "/></g></g></g><g fill="#ffffff" fill-opacity="1"><g transform="translate(200.531177, 307.789139)"><g><path d="M 1.75 0 L 1.75 -13.859375 L 4.6875 -13.859375 L 4.6875 0 Z M 1.75 0 "/></g></g></g><g fill="#ffffff" fill-opacity="1"><g transform="translate(206.959586, 307.789139)"><g><path d="M 14.328125 -6.953125 C 14.328125 -5.878906 14.191406 -4.90625 13.921875 -4.03125 C 13.660156 -3.15625 13.257812 -2.398438 12.71875 -1.765625 C 12.175781 -1.140625 11.488281 -0.65625 10.65625 -0.3125 C 9.832031 0.0195312 8.859375 0.1875 7.734375 0.1875 C 6.597656 0.1875 5.613281 0.0195312 4.78125 -0.3125 C 3.957031 -0.65625 3.273438 -1.140625 2.734375 -1.765625 C 2.191406 -2.398438 1.785156 -3.15625 1.515625 -4.03125 C 1.253906 -4.914062 1.125 -5.894531 1.125 -6.96875 C 1.125 -8.40625 1.359375 -9.65625 1.828125 -10.71875 C 2.304688 -11.78125 3.035156 -12.601562 4.015625 -13.1875 C 4.992188 -13.78125 6.238281 -14.078125 7.75 -14.078125 C 9.25 -14.078125 10.484375 -13.78125 11.453125 -13.1875 C 12.429688 -12.601562 13.15625 -11.773438 13.625 -10.703125 C 14.09375 -9.640625 14.328125 -8.390625 14.328125 -6.953125 Z M 4.203125 -6.953125 C 4.203125 -5.984375 4.320312 -5.148438 4.5625 -4.453125 C 4.8125 -3.753906 5.195312 -3.21875 5.71875 -2.84375 C 6.238281 -2.46875 6.910156 -2.28125 7.734375 -2.28125 C 8.566406 -2.28125 9.238281 -2.46875 9.75 -2.84375 C 10.269531 -3.21875 10.648438 -3.753906 10.890625 -4.453125 C 11.128906 -5.148438 11.25 -5.984375 11.25 -6.953125 C 11.25 -8.398438 10.972656 -9.539062 10.421875 -10.375 C 9.878906 -11.21875 8.988281 -11.640625 7.75 -11.640625 C 6.914062 -11.640625 6.238281 -11.445312 5.71875 -11.0625 C 5.195312 -10.6875 4.8125 -10.148438 4.5625 -9.453125 C 4.320312 -8.753906 4.203125 -7.921875 4.203125 -6.953125 Z M 4.203125 -6.953125 "/></g></g></g><path stroke-linecap="butt" transform="matrix(0.75, 0, 0, 0.75, 95.886481, 298.245448)" fill="none" stroke-linejoin="miter" d="M 0.000317529 2.000861 L 67.364905 2.000861 " stroke="#ffffff" stroke-width="4" stroke-opacity="1" stroke-miterlimit="4"/><path stroke-linecap="butt" transform="matrix(0.75, 0, 0, 0.75, 225.291055, 298.245448)" fill="none" stroke-linejoin="miter" d="M 0.00255233 2.000861 L 67.36714 2.000861 " stroke="#ffffff" stroke-width="4" stroke-opacity="1" stroke-miterlimit="4"/><g clip-path="url(#ceccc0bedb)"><path fill="#ff1c1c" d="M 363.179688 159.941406 L 11.945312 159.941406 C 25.21875 74.890625 98.789062 9.8125 187.5625 9.8125 C 276.339844 9.8125 349.90625 74.890625 363.179688 159.941406 Z M 363.179688 159.941406 " fill-opacity="1" fill-rule="nonzero"/></g><g clip-path="url(#bddacb35cb)"><path fill="#f1f2f2" d="M 363.179688 215.1875 C 349.90625 300.238281 276.335938 365.3125 187.5625 365.3125 C 98.792969 365.3125 25.21875 300.238281 11.945312 215.1875 Z M 363.179688 215.1875 " fill-opacity="1" fill-rule="nonzero"/></g><g clip-path="url(#c72cbf3f1f)"><path fill="#000000" d="M 365.3125 187.492188 C 365.3125 192.980469 364.582031 198.367188 363.179688 203.621094 L 11.945312 203.621094 C 10.542969 198.367188 9.8125 192.980469 9.8125 187.492188 C 9.8125 182.003906 10.542969 176.621094 11.945312 171.363281 L 363.179688 171.363281 C 364.582031 176.621094 365.3125 182.007812 365.3125 187.492188 Z M 365.3125 187.492188 " fill-opacity="1" fill-rule="nonzero"/></g></svg>