<svg xmlns="http://www.w3.org/2000/svg" xmlns:xlink="http://www.w3.org/1999/xlink" width="500" zoomAndPan="magnify" viewBox="0 0 375 374.999991" height="500" preserveAspectRatio="xMidYMid meet" version="1.0"><defs><g/><clipPath id="33999c1806"><path d="M 226 227 L 362 227 L 362 362.535156 L 226 362.535156 Z M 226 227 " clip-rule="nonzero"/></clipPath><clipPath id="484d21bdde"><path d="M 53 53.929688 L 260 53.929688 L 260 142 L 53 142 Z M 53 53.929688 " clip-rule="nonzero"/></clipPath><clipPath id="d4280ae5f3"><path d="M 53 174 L 260 174 L 260 262.429688 L 53 262.429688 Z M 53 174 " clip-rule="nonzero"/></clipPath><clipPath id="5e839a93b3"><path d="M 51.785156 148 L 260.285156 148 L 260.285156 168 L 51.785156 168 Z M 51.785156 148 " clip-rule="nonzero"/></clipPath></defs><g fill="#ffffff" fill-opacity="1"><g transform="translate(94.171053, 284.593239)"><g><path d="M 15.5625 0 L 8.75 -22.234375 L 8.5625 -22.234375 C 8.59375 -21.703125 8.632812 -20.90625 8.6875 -19.84375 C 8.75 -18.78125 8.804688 -17.644531 8.859375 -16.4375 C 8.910156 -15.238281 8.9375 -14.15625 8.9375 -13.1875 L 8.9375 0 L 3.5625 0 L 3.5625 -28.34375 L 11.75 -28.34375 L 18.453125 -6.671875 L 18.578125 -6.671875 L 25.6875 -28.34375 L 33.875 -28.34375 L 33.875 0 L 28.265625 0 L 28.265625 -13.421875 C 28.265625 -14.304688 28.28125 -15.332031 28.3125 -16.5 C 28.34375 -17.664062 28.382812 -18.773438 28.4375 -19.828125 C 28.488281 -20.878906 28.53125 -21.671875 28.5625 -22.203125 L 28.375 -22.203125 L 21.078125 0 Z M 15.5625 0 "/></g></g></g><g fill="#ffffff" fill-opacity="1"><g transform="translate(131.594936, 284.593239)"><g><path d="M 29.296875 -14.203125 C 29.296875 -12.023438 29.023438 -10.039062 28.484375 -8.25 C 27.941406 -6.457031 27.113281 -4.914062 26 -3.625 C 24.894531 -2.332031 23.492188 -1.335938 21.796875 -0.640625 C 20.109375 0.046875 18.109375 0.390625 15.796875 0.390625 C 13.484375 0.390625 11.476562 0.046875 9.78125 -0.640625 C 8.09375 -1.335938 6.695312 -2.332031 5.59375 -3.625 C 4.488281 -4.914062 3.664062 -6.457031 3.125 -8.25 C 2.582031 -10.050781 2.3125 -12.050781 2.3125 -14.25 C 2.3125 -17.1875 2.789062 -19.742188 3.75 -21.921875 C 4.71875 -24.097656 6.203125 -25.785156 8.203125 -26.984375 C 10.203125 -28.179688 12.75 -28.78125 15.84375 -28.78125 C 18.914062 -28.78125 21.441406 -28.179688 23.421875 -26.984375 C 25.410156 -25.785156 26.882812 -24.09375 27.84375 -21.90625 C 28.8125 -19.71875 29.296875 -17.148438 29.296875 -14.203125 Z M 8.609375 -14.203125 C 8.609375 -12.234375 8.851562 -10.53125 9.34375 -9.09375 C 9.84375 -7.664062 10.625 -6.566406 11.6875 -5.796875 C 12.75 -5.035156 14.117188 -4.65625 15.796875 -4.65625 C 17.503906 -4.65625 18.882812 -5.035156 19.9375 -5.796875 C 21 -6.566406 21.769531 -7.664062 22.25 -9.09375 C 22.738281 -10.53125 22.984375 -12.234375 22.984375 -14.203125 C 22.984375 -17.179688 22.425781 -19.519531 21.3125 -21.21875 C 20.207031 -22.925781 18.382812 -23.78125 15.84375 -23.78125 C 14.144531 -23.78125 12.757812 -23.394531 11.6875 -22.625 C 10.625 -21.863281 9.84375 -20.769531 9.34375 -19.34375 C 8.851562 -17.914062 8.609375 -16.203125 8.609375 -14.203125 Z M 8.609375 -14.203125 "/></g></g></g><g fill="#ffffff" fill-opacity="1"><g transform="translate(163.185263, 284.593239)"><g><path d="M 11.828125 -28.34375 C 14.398438 -28.34375 16.519531 -28.03125 18.1875 -27.40625 C 19.863281 -26.789062 21.109375 -25.851562 21.921875 -24.59375 C 22.734375 -23.34375 23.140625 -21.765625 23.140625 -19.859375 C 23.140625 -18.554688 22.894531 -17.421875 22.40625 -16.453125 C 21.914062 -15.484375 21.269531 -14.660156 20.46875 -13.984375 C 19.664062 -13.316406 18.800781 -12.769531 17.875 -12.34375 L 26.203125 0 L 19.546875 0 L 12.78125 -10.875 L 9.578125 -10.875 L 9.578125 0 L 3.5625 0 L 3.5625 -28.34375 Z M 11.40625 -23.421875 L 9.578125 -23.421875 L 9.578125 -15.765625 L 11.515625 -15.765625 C 13.503906 -15.765625 14.925781 -16.097656 15.78125 -16.765625 C 16.644531 -17.429688 17.078125 -18.410156 17.078125 -19.703125 C 17.078125 -21.046875 16.613281 -22 15.6875 -22.5625 C 14.769531 -23.132812 13.34375 -23.421875 11.40625 -23.421875 Z M 11.40625 -23.421875 "/></g></g></g><g fill="#ffffff" fill-opacity="1"><g transform="translate(189.387791, 284.593239)"><g><path d="M 14.328125 -15.921875 L 25.578125 -15.921875 L 25.578125 -1.21875 C 24.085938 -0.726562 22.539062 -0.335938 20.9375 -0.046875 C 19.332031 0.242188 17.515625 0.390625 15.484375 0.390625 C 12.671875 0.390625 10.28125 -0.164062 8.3125 -1.28125 C 6.351562 -2.394531 4.863281 -4.035156 3.84375 -6.203125 C 2.820312 -8.367188 2.3125 -11.035156 2.3125 -14.203125 C 2.3125 -17.179688 2.878906 -19.753906 4.015625 -21.921875 C 5.160156 -24.097656 6.832031 -25.78125 9.03125 -26.96875 C 11.238281 -28.15625 13.9375 -28.75 17.125 -28.75 C 18.613281 -28.75 20.085938 -28.585938 21.546875 -28.265625 C 23.015625 -27.941406 24.34375 -27.519531 25.53125 -27 L 23.53125 -22.203125 C 22.664062 -22.640625 21.675781 -23.003906 20.5625 -23.296875 C 19.457031 -23.597656 18.296875 -23.75 17.078125 -23.75 C 15.335938 -23.75 13.820312 -23.347656 12.53125 -22.546875 C 11.25 -21.742188 10.253906 -20.617188 9.546875 -19.171875 C 8.835938 -17.734375 8.484375 -16.039062 8.484375 -14.09375 C 8.484375 -12.25 8.734375 -10.609375 9.234375 -9.171875 C 9.742188 -7.742188 10.539062 -6.625 11.625 -5.8125 C 12.71875 -5.007812 14.132812 -4.609375 15.875 -4.609375 C 16.726562 -4.609375 17.445312 -4.648438 18.03125 -4.734375 C 18.625 -4.816406 19.179688 -4.90625 19.703125 -5 L 19.703125 -10.921875 L 14.328125 -10.921875 Z M 14.328125 -15.921875 "/></g></g></g><g fill="#ffffff" fill-opacity="1"><g transform="translate(218.12918, 284.593239)"><g><path d="M 20.921875 0 L 18.859375 -6.75 L 8.53125 -6.75 L 6.46875 0 L 0 0 L 10 -28.453125 L 17.34375 -28.453125 L 27.390625 0 Z M 17.421875 -11.78125 L 15.375 -18.375 C 15.238281 -18.8125 15.066406 -19.375 14.859375 -20.0625 C 14.648438 -20.757812 14.4375 -21.46875 14.21875 -22.1875 C 14.007812 -22.90625 13.835938 -23.53125 13.703125 -24.0625 C 13.578125 -23.53125 13.398438 -22.875 13.171875 -22.09375 C 12.941406 -21.3125 12.722656 -20.570312 12.515625 -19.875 C 12.316406 -19.175781 12.171875 -18.675781 12.078125 -18.375 L 10.046875 -11.78125 Z M 17.421875 -11.78125 "/></g></g></g><g fill="#ffffff" fill-opacity="1"><g transform="translate(245.513928, 284.593239)"><g><path d="M 28.71875 0 L 21.078125 0 L 8.75 -21.4375 L 8.5625 -21.4375 C 8.613281 -20.550781 8.660156 -19.65625 8.703125 -18.75 C 8.742188 -17.84375 8.78125 -16.9375 8.8125 -16.03125 C 8.851562 -15.132812 8.894531 -14.238281 8.9375 -13.34375 L 8.9375 0 L 3.5625 0 L 3.5625 -28.34375 L 11.140625 -28.34375 L 23.453125 -7.109375 L 23.59375 -7.109375 C 23.5625 -7.992188 23.523438 -8.867188 23.484375 -9.734375 C 23.453125 -10.597656 23.421875 -11.460938 23.390625 -12.328125 C 23.359375 -13.191406 23.328125 -14.054688 23.296875 -14.921875 L 23.296875 -28.34375 L 28.71875 -28.34375 Z M 28.71875 0 "/></g></g></g><g fill="#ffffff" fill-opacity="1"><g transform="translate(149.540049, 307.789139)"><g><path d="M 9.921875 -3.84375 C 9.921875 -3.03125 9.722656 -2.316406 9.328125 -1.703125 C 8.929688 -1.097656 8.351562 -0.628906 7.59375 -0.296875 C 6.832031 0.0234375 5.90625 0.1875 4.8125 0.1875 C 4.332031 0.1875 3.863281 0.15625 3.40625 0.09375 C 2.945312 0.03125 2.503906 -0.0625 2.078125 -0.1875 C 1.660156 -0.3125 1.265625 -0.460938 0.890625 -0.640625 L 0.890625 -3.375 C 1.546875 -3.082031 2.226562 -2.816406 2.9375 -2.578125 C 3.644531 -2.347656 4.347656 -2.234375 5.046875 -2.234375 C 5.523438 -2.234375 5.910156 -2.296875 6.203125 -2.421875 C 6.492188 -2.554688 6.707031 -2.734375 6.84375 -2.953125 C 6.976562 -3.171875 7.046875 -3.421875 7.046875 -3.703125 C 7.046875 -4.054688 6.925781 -4.351562 6.6875 -4.59375 C 6.457031 -4.84375 6.140625 -5.070312 5.734375 -5.28125 C 5.328125 -5.5 4.867188 -5.734375 4.359375 -5.984375 C 4.035156 -6.140625 3.679688 -6.320312 3.296875 -6.53125 C 2.921875 -6.75 2.5625 -7.015625 2.21875 -7.328125 C 1.875 -7.648438 1.59375 -8.035156 1.375 -8.484375 C 1.15625 -8.941406 1.046875 -9.488281 1.046875 -10.125 C 1.046875 -10.945312 1.234375 -11.648438 1.609375 -12.234375 C 1.992188 -12.828125 2.539062 -13.28125 3.25 -13.59375 C 3.957031 -13.90625 4.789062 -14.0625 5.75 -14.0625 C 6.46875 -14.0625 7.15625 -13.976562 7.8125 -13.8125 C 8.46875 -13.644531 9.148438 -13.40625 9.859375 -13.09375 L 8.921875 -10.796875 C 8.273438 -11.054688 7.695312 -11.253906 7.1875 -11.390625 C 6.6875 -11.535156 6.175781 -11.609375 5.65625 -11.609375 C 5.289062 -11.609375 4.976562 -11.550781 4.71875 -11.4375 C 4.457031 -11.320312 4.257812 -11.15625 4.125 -10.9375 C 3.988281 -10.726562 3.921875 -10.488281 3.921875 -10.21875 C 3.921875 -9.882812 4.015625 -9.601562 4.203125 -9.375 C 4.398438 -9.15625 4.691406 -8.941406 5.078125 -8.734375 C 5.472656 -8.523438 5.960938 -8.28125 6.546875 -8 C 7.253906 -7.664062 7.859375 -7.316406 8.359375 -6.953125 C 8.859375 -6.585938 9.242188 -6.160156 9.515625 -5.671875 C 9.785156 -5.179688 9.921875 -4.570312 9.921875 -3.84375 Z M 9.921875 -3.84375 "/></g></g></g><g fill="#ffffff" fill-opacity="1"><g transform="translate(160.235101, 307.789139)"><g><path d="M 7.09375 0 L 4.15625 0 L 4.15625 -11.421875 L 0.390625 -11.421875 L 0.390625 -13.859375 L 10.859375 -13.859375 L 10.859375 -11.421875 L 7.09375 -11.421875 Z M 7.09375 0 "/></g></g></g><g fill="#ffffff" fill-opacity="1"><g transform="translate(171.480077, 307.789139)"><g><path d="M 13.03125 -13.859375 L 13.03125 -4.890625 C 13.03125 -3.941406 12.816406 -3.082031 12.390625 -2.3125 C 11.972656 -1.539062 11.335938 -0.929688 10.484375 -0.484375 C 9.640625 -0.0351562 8.570312 0.1875 7.28125 0.1875 C 5.445312 0.1875 4.050781 -0.28125 3.09375 -1.21875 C 2.132812 -2.15625 1.65625 -3.394531 1.65625 -4.9375 L 1.65625 -13.859375 L 4.578125 -13.859375 L 4.578125 -5.375 C 4.578125 -4.226562 4.8125 -3.425781 5.28125 -2.96875 C 5.75 -2.507812 6.441406 -2.28125 7.359375 -2.28125 C 8.003906 -2.28125 8.523438 -2.390625 8.921875 -2.609375 C 9.328125 -2.828125 9.625 -3.164062 9.8125 -3.625 C 10 -4.09375 10.09375 -4.679688 10.09375 -5.390625 L 10.09375 -13.859375 Z M 13.03125 -13.859375 "/></g></g></g><g fill="#ffffff" fill-opacity="1"><g transform="translate(186.15733, 307.789139)"><g><path d="M 13.25 -7.0625 C 13.25 -5.5 12.945312 -4.191406 12.34375 -3.140625 C 11.75 -2.097656 10.882812 -1.3125 9.75 -0.78125 C 8.625 -0.257812 7.265625 0 5.671875 0 L 1.75 0 L 1.75 -13.859375 L 6.09375 -13.859375 C 7.550781 -13.859375 8.8125 -13.597656 9.875 -13.078125 C 10.945312 -12.566406 11.773438 -11.804688 12.359375 -10.796875 C 12.953125 -9.796875 13.25 -8.550781 13.25 -7.0625 Z M 10.1875 -6.984375 C 10.1875 -8.015625 10.035156 -8.859375 9.734375 -9.515625 C 9.441406 -10.171875 9.003906 -10.65625 8.421875 -10.96875 C 7.835938 -11.289062 7.113281 -11.453125 6.25 -11.453125 L 4.6875 -11.453125 L 4.6875 -2.421875 L 5.953125 -2.421875 C 7.378906 -2.421875 8.441406 -2.800781 9.140625 -3.5625 C 9.835938 -4.332031 10.1875 -5.472656 10.1875 -6.984375 Z M 10.1875 -6.984375 "/></g></g></g><g fill="#ffffff" fill-opacity="1"><g transform="translate(200.531177, 307.789139)"><g><path d="M 1.75 0 L 1.75 -13.859375 L 4.6875 -13.859375 L 4.6875 0 Z M 1.75 0 "/></g></g></g><g fill="#ffffff" fill-opacity="1"><g transform="translate(206.959586, 307.789139)"><g><path d="M 14.328125 -6.953125 C 14.328125 -5.878906 14.191406 -4.90625 13.921875 -4.03125 C 13.660156 -3.15625 13.257812 -2.398438 12.71875 -1.765625 C 12.175781 -1.140625 11.488281 -0.65625 10.65625 -0.3125 C 9.832031 0.0195312 8.859375 0.1875 7.734375 0.1875 C 6.597656 0.1875 5.613281 0.0195312 4.78125 -0.3125 C 3.957031 -0.65625 3.273438 -1.140625 2.734375 -1.765625 C 2.191406 -2.398438 1.785156 -3.15625 1.515625 -4.03125 C 1.253906 -4.914062 1.125 -5.894531 1.125 -6.96875 C 1.125 -8.40625 1.359375 -9.65625 1.828125 -10.71875 C 2.304688 -11.78125 3.035156 -12.601562 4.015625 -13.1875 C 4.992188 -13.78125 6.238281 -14.078125 7.75 -14.078125 C 9.25 -14.078125 10.484375 -13.78125 11.453125 -13.1875 C 12.429688 -12.601562 13.15625 -11.773438 13.625 -10.703125 C 14.09375 -9.640625 14.328125 -8.390625 14.328125 -6.953125 Z M 4.203125 -6.953125 C 4.203125 -5.984375 4.320312 -5.148438 4.5625 -4.453125 C 4.8125 -3.753906 5.195312 -3.21875 5.71875 -2.84375 C 6.238281 -2.46875 6.910156 -2.28125 7.734375 -2.28125 C 8.566406 -2.28125 9.238281 -2.46875 9.75 -2.84375 C 10.269531 -3.21875 10.648438 -3.753906 10.890625 -4.453125 C 11.128906 -5.148438 11.25 -5.984375 11.25 -6.953125 C 11.25 -8.398438 10.972656 -9.539062 10.421875 -10.375 C 9.878906 -11.21875 8.988281 -11.640625 7.75 -11.640625 C 6.914062 -11.640625 6.238281 -11.445312 5.71875 -11.0625 C 5.195312 -10.6875 4.8125 -10.148438 4.5625 -9.453125 C 4.320312 -8.753906 4.203125 -7.921875 4.203125 -6.953125 Z M 4.203125 -6.953125 "/></g></g></g><path stroke-linecap="butt" transform="matrix(0.75, 0, 0, 0.75, 95.886481, 298.245448)" fill="none" stroke-linejoin="miter" d="M 0.000317529 2.000861 L 67.364905 2.000861 " stroke="#ffffff" stroke-width="4" stroke-opacity="1" stroke-miterlimit="4"/><path stroke-linecap="butt" transform="matrix(0.75, 0, 0, 0.75, 225.291055, 298.245448)" fill="none" stroke-linejoin="miter" d="M 0.00255233 2.000861 L 67.36714 2.000861 " stroke="#ffffff" stroke-width="4" stroke-opacity="1" stroke-miterlimit="4"/><path fill="#000000" d="M 156.9375 291.96875 C 154.203125 291.972656 151.46875 291.890625 148.738281 291.722656 C 146.007812 291.554688 143.289062 291.304688 140.574219 290.972656 C 137.859375 290.640625 135.15625 290.222656 132.46875 289.722656 C 129.777344 289.222656 127.105469 288.640625 124.453125 287.980469 C 121.800781 287.316406 119.171875 286.570312 116.5625 285.746094 C 113.953125 284.921875 111.375 284.015625 108.824219 283.035156 C 106.269531 282.050781 103.75 280.988281 101.265625 279.851562 C 98.777344 278.714844 96.328125 277.5 93.914062 276.210938 C 91.503906 274.921875 89.132812 273.5625 86.804688 272.128906 C 84.472656 270.695312 82.191406 269.1875 79.953125 267.613281 C 77.71875 266.039062 75.53125 264.398438 73.394531 262.691406 C 71.261719 260.984375 69.179688 259.210938 67.152344 257.375 C 65.125 255.539062 63.15625 253.640625 61.246094 251.683594 C 59.335938 249.726562 57.488281 247.714844 55.699219 245.644531 C 53.914062 243.570312 52.191406 241.449219 50.535156 239.273438 C 48.878906 237.097656 47.289062 234.871094 45.769531 232.597656 C 44.25 230.324219 42.800781 228.003906 41.425781 225.640625 C 40.046875 223.28125 38.742188 220.875 37.511719 218.433594 C 36.28125 215.992188 35.128906 213.511719 34.050781 211 C 32.972656 208.484375 31.972656 205.941406 31.050781 203.367188 C 30.128906 200.792969 29.289062 198.191406 28.527344 195.5625 C 27.765625 192.9375 27.082031 190.289062 26.484375 187.621094 C 25.882812 184.953125 25.367188 182.269531 24.933594 179.566406 C 24.5 176.867188 24.148438 174.15625 23.878906 171.433594 C 23.609375 168.710938 23.425781 165.984375 23.324219 163.25 C 23.226562 160.519531 23.207031 157.785156 23.273438 155.050781 C 23.34375 152.316406 23.492188 149.585938 23.726562 146.863281 C 23.960938 144.136719 24.28125 141.421875 24.683594 138.714844 C 25.082031 136.011719 25.566406 133.320312 26.132812 130.644531 C 26.699219 127.96875 27.347656 125.3125 28.078125 122.679688 C 28.808594 120.042969 29.617188 117.429688 30.507812 114.84375 C 31.398438 112.257812 32.367188 109.703125 33.414062 107.175781 C 34.460938 104.648438 35.585938 102.15625 36.785156 99.699219 C 37.984375 97.242188 39.257812 94.824219 40.605469 92.441406 C 41.957031 90.0625 43.375 87.726562 44.867188 85.433594 C 46.359375 83.144531 47.921875 80.898438 49.550781 78.703125 C 51.179688 76.507812 52.875 74.363281 54.636719 72.269531 C 56.398438 70.175781 58.222656 68.140625 60.109375 66.160156 C 61.996094 64.179688 63.941406 62.257812 65.945312 60.398438 C 67.949219 58.539062 70.007812 56.738281 72.121094 55.003906 C 74.238281 53.269531 76.402344 51.601562 78.621094 50 C 80.835938 48.398438 83.101562 46.867188 85.414062 45.40625 C 87.722656 43.941406 90.078125 42.550781 92.472656 41.234375 C 94.871094 39.917969 97.304688 38.671875 99.777344 37.503906 C 102.25 36.335938 104.757812 35.246094 107.296875 34.230469 C 109.835938 33.214844 112.40625 32.28125 115.003906 31.421875 C 117.601562 30.566406 120.222656 29.789062 122.867188 29.09375 C 125.511719 28.398438 128.175781 27.78125 130.855469 27.25 C 133.539062 26.71875 136.238281 26.269531 138.945312 25.902344 C 141.65625 25.535156 144.375 25.25 147.105469 25.050781 C 149.832031 24.851562 152.5625 24.734375 155.296875 24.703125 C 158.03125 24.671875 160.765625 24.722656 163.496094 24.859375 C 166.230469 24.992188 168.953125 25.210938 171.671875 25.515625 C 174.390625 25.820312 177.097656 26.203125 179.792969 26.671875 C 182.484375 27.140625 185.164062 27.695312 187.824219 28.328125 C 190.484375 28.960938 193.125 29.675781 195.738281 30.46875 C 198.355469 31.265625 200.945312 32.140625 203.507812 33.09375 C 206.074219 34.050781 208.605469 35.082031 211.105469 36.191406 C 213.605469 37.300781 216.066406 38.488281 218.492188 39.75 C 220.921875 41.007812 223.308594 42.34375 225.652344 43.75 C 227.996094 45.160156 230.296875 46.636719 232.550781 48.1875 C 234.804688 49.734375 237.007812 51.351562 239.164062 53.035156 C 241.320312 54.71875 243.421875 56.46875 245.46875 58.28125 C 247.515625 60.09375 249.507812 61.96875 251.4375 63.902344 C 253.761719 66.222656 255.992188 68.625 258.136719 71.109375 C 260.285156 73.59375 262.335938 76.152344 264.289062 78.785156 C 266.246094 81.421875 268.101562 84.125 269.859375 86.894531 C 271.617188 89.667969 273.269531 92.5 274.816406 95.394531 C 276.367188 98.289062 277.804688 101.234375 279.136719 104.234375 C 280.46875 107.234375 281.6875 110.277344 282.792969 113.367188 C 283.898438 116.457031 284.890625 119.582031 285.765625 122.746094 C 286.644531 125.90625 287.402344 129.097656 288.042969 132.316406 C 288.683594 135.535156 289.207031 138.773438 289.609375 142.03125 C 290.011719 145.289062 290.292969 148.554688 290.453125 151.832031 C 290.613281 155.109375 290.65625 158.390625 290.574219 161.667969 C 290.496094 164.949219 290.292969 168.222656 289.972656 171.488281 C 289.652344 174.753906 289.210938 178.003906 288.648438 181.238281 C 288.089844 184.472656 287.410156 187.679688 286.613281 190.863281 C 285.8125 194.046875 284.902344 197.195312 283.871094 200.3125 C 282.839844 203.429688 281.699219 206.503906 280.441406 209.535156 C 279.1875 212.566406 277.820312 215.546875 276.34375 218.476562 C 274.867188 221.410156 273.285156 224.28125 271.597656 227.097656 C 269.910156 229.910156 268.121094 232.660156 266.230469 235.339844 C 264.339844 238.023438 262.355469 240.632812 260.273438 243.167969 C 258.1875 245.707031 256.015625 248.160156 253.753906 250.539062 C 251.488281 252.914062 249.140625 255.203125 246.707031 257.40625 C 244.277344 259.609375 241.765625 261.71875 239.175781 263.738281 C 236.589844 265.753906 233.929688 267.675781 231.199219 269.496094 C 228.472656 271.320312 225.679688 273.039062 222.824219 274.652344 C 219.964844 276.269531 217.054688 277.777344 214.085938 279.179688 C 211.121094 280.582031 208.105469 281.871094 205.042969 283.050781 C 201.980469 284.230469 198.878906 285.292969 195.738281 286.246094 C 192.597656 287.195312 189.425781 288.027344 186.222656 288.746094 C 183.019531 289.460938 179.792969 290.0625 176.546875 290.539062 C 173.300781 291.019531 170.042969 291.378906 166.769531 291.617188 C 163.496094 291.855469 160.21875 291.972656 156.9375 291.96875 Z M 156.9375 54.136719 C 154.945312 54.132812 152.953125 54.1875 150.964844 54.296875 C 148.976562 54.40625 146.992188 54.570312 145.011719 54.796875 C 143.03125 55.019531 141.0625 55.296875 139.097656 55.636719 C 137.132812 55.972656 135.183594 56.363281 133.242188 56.8125 C 131.300781 57.261719 129.375 57.765625 127.460938 58.324219 C 125.550781 58.882812 123.65625 59.492188 121.777344 60.160156 C 119.902344 60.828125 118.042969 61.550781 116.207031 62.324219 C 114.371094 63.097656 112.5625 63.921875 110.773438 64.800781 C 108.984375 65.675781 107.222656 66.605469 105.488281 67.582031 C 103.75 68.5625 102.046875 69.589844 100.371094 70.664062 C 98.691406 71.742188 97.050781 72.867188 95.4375 74.035156 C 93.824219 75.207031 92.25 76.421875 90.707031 77.683594 C 89.164062 78.945312 87.660156 80.25 86.191406 81.59375 C 84.722656 82.941406 83.296875 84.332031 81.90625 85.757812 C 80.519531 87.1875 79.175781 88.65625 77.871094 90.164062 C 76.566406 91.667969 75.308594 93.210938 74.089844 94.789062 C 72.875 96.367188 71.707031 97.980469 70.582031 99.625 C 69.460938 101.269531 68.386719 102.945312 67.359375 104.652344 C 66.332031 106.359375 65.355469 108.09375 64.425781 109.859375 C 63.5 111.621094 62.625 113.410156 61.796875 115.222656 C 60.972656 117.035156 60.199219 118.871094 59.480469 120.730469 C 58.761719 122.585938 58.09375 124.460938 57.484375 126.359375 C 56.871094 128.253906 56.3125 130.164062 55.808594 132.09375 C 55.308594 134.019531 54.859375 135.960938 54.46875 137.914062 C 54.078125 139.867188 53.742188 141.832031 53.464844 143.804688 C 53.183594 145.777344 52.960938 147.753906 52.796875 149.738281 C 52.632812 151.726562 52.523438 153.714844 52.472656 155.703125 C 52.417969 157.695312 52.425781 159.6875 52.488281 161.679688 C 52.550781 163.667969 52.667969 165.65625 52.84375 167.640625 C 53.023438 169.625 53.253906 171.605469 53.546875 173.574219 C 53.835938 175.546875 54.179688 177.507812 54.582031 179.457031 C 54.984375 181.410156 55.441406 183.347656 55.957031 185.269531 C 56.46875 187.195312 57.039062 189.105469 57.660156 190.996094 C 58.28125 192.890625 58.960938 194.761719 59.691406 196.617188 C 60.417969 198.46875 61.203125 200.300781 62.035156 202.109375 C 62.871094 203.917969 63.757812 205.699219 64.695312 207.457031 C 65.632812 209.214844 66.621094 210.945312 67.65625 212.648438 C 68.691406 214.347656 69.777344 216.019531 70.90625 217.65625 C 72.039062 219.296875 73.21875 220.902344 74.441406 222.472656 C 75.667969 224.046875 76.933594 225.582031 78.246094 227.082031 C 79.558594 228.578125 80.914062 230.039062 82.308594 231.460938 C 83.703125 232.882812 85.140625 234.261719 86.613281 235.601562 C 88.089844 236.941406 89.601562 238.234375 91.152344 239.488281 C 92.699219 240.742188 94.285156 241.949219 95.902344 243.109375 C 97.519531 244.273438 99.171875 245.386719 100.851562 246.453125 C 102.535156 247.519531 104.246094 248.539062 105.988281 249.507812 C 107.726562 250.476562 109.496094 251.394531 111.289062 252.261719 C 113.082031 253.128906 114.898438 253.945312 116.738281 254.707031 C 118.578125 255.472656 120.4375 256.183594 122.316406 256.839844 C 124.199219 257.496094 126.097656 258.097656 128.011719 258.648438 C 129.925781 259.195312 131.855469 259.6875 133.800781 260.125 C 135.742188 260.5625 137.699219 260.945312 139.664062 261.269531 C 141.628906 261.597656 143.601562 261.867188 145.582031 262.078125 C 147.5625 262.289062 149.546875 262.445312 151.539062 262.542969 C 153.527344 262.644531 155.519531 262.683594 157.511719 262.667969 C 159.503906 262.652344 161.492188 262.582031 163.480469 262.453125 C 165.46875 262.324219 167.449219 262.136719 169.425781 261.894531 C 171.40625 261.648438 173.375 261.351562 175.332031 260.996094 C 177.292969 260.636719 179.242188 260.226562 181.179688 259.757812 C 183.113281 259.292969 185.035156 258.769531 186.941406 258.191406 C 188.847656 257.613281 190.738281 256.980469 192.609375 256.296875 C 194.476562 255.609375 196.328125 254.871094 198.15625 254.078125 C 199.984375 253.285156 201.785156 252.441406 203.566406 251.546875 C 205.34375 250.652344 207.097656 249.707031 208.824219 248.710938 C 210.546875 247.714844 212.246094 246.671875 213.910156 245.578125 C 215.574219 244.484375 217.207031 243.34375 218.808594 242.160156 C 220.410156 240.972656 221.972656 239.742188 223.503906 238.464844 C 225.03125 237.1875 226.523438 235.867188 227.976562 234.507812 C 229.433594 233.144531 230.847656 231.742188 232.21875 230.300781 C 233.59375 228.859375 234.925781 227.375 236.214844 225.859375 C 237.5 224.339844 238.746094 222.785156 239.945312 221.195312 C 241.144531 219.601562 242.296875 217.980469 243.40625 216.324219 C 244.511719 214.667969 245.570312 212.980469 246.578125 211.261719 C 247.589844 209.546875 248.550781 207.800781 249.460938 206.027344 C 250.367188 204.257812 251.226562 202.460938 252.035156 200.636719 C 252.839844 198.816406 253.59375 196.972656 254.296875 195.109375 C 254.996094 193.246094 255.644531 191.363281 256.238281 189.460938 C 256.832031 187.558594 257.371094 185.640625 257.851562 183.707031 C 258.335938 181.777344 258.765625 179.832031 259.136719 177.875 C 259.507812 175.917969 259.824219 173.949219 260.082031 171.976562 C 260.34375 170 260.546875 168.019531 260.691406 166.03125 C 260.835938 164.046875 260.925781 162.058594 260.957031 160.066406 C 260.988281 158.074219 260.964844 156.082031 260.882812 154.089844 C 260.796875 152.101562 260.660156 150.113281 260.464844 148.132812 C 260.265625 146.148438 260.015625 144.175781 259.703125 142.207031 C 259.394531 140.238281 259.03125 138.28125 258.609375 136.335938 C 258.1875 134.386719 257.707031 132.453125 257.175781 130.535156 C 256.644531 128.617188 256.058594 126.710938 255.414062 124.828125 C 254.773438 122.941406 254.078125 121.074219 253.332031 119.226562 C 252.582031 117.382812 251.78125 115.558594 250.929688 113.757812 C 250.074219 111.957031 249.171875 110.183594 248.214844 108.4375 C 247.261719 106.6875 246.257812 104.96875 245.203125 103.277344 C 244.152344 101.585938 243.050781 99.925781 241.902344 98.300781 C 240.753906 96.671875 239.558594 95.078125 238.320312 93.519531 C 237.082031 91.957031 235.796875 90.4375 234.46875 88.949219 C 233.144531 87.464844 231.773438 86.019531 230.363281 84.609375 C 227.960938 82.203125 225.441406 79.921875 222.8125 77.761719 C 220.1875 75.605469 217.457031 73.578125 214.628906 71.6875 C 211.800781 69.796875 208.890625 68.046875 205.890625 66.441406 C 202.890625 64.839844 199.820312 63.382812 196.679688 62.078125 C 193.535156 60.777344 190.339844 59.628906 187.082031 58.636719 C 183.828125 57.648438 180.535156 56.820312 177.199219 56.152344 C 173.863281 55.488281 170.503906 54.984375 167.117188 54.648438 C 163.730469 54.3125 160.339844 54.140625 156.9375 54.136719 Z M 156.9375 54.136719 " fill-opacity="1" fill-rule="nonzero"/><g clip-path="url(#33999c1806)"><path fill="#000000" d="M 346.378906 362.535156 C 344.4375 362.527344 342.566406 362.148438 340.773438 361.394531 C 338.980469 360.644531 337.398438 359.582031 336.027344 358.203125 L 230.660156 252.90625 C 229.976562 252.226562 229.367188 251.484375 228.832031 250.679688 C 228.296875 249.878906 227.84375 249.03125 227.472656 248.140625 C 227.105469 247.25 226.824219 246.328125 226.636719 245.382812 C 226.449219 244.4375 226.355469 243.480469 226.355469 242.515625 C 226.355469 241.550781 226.449219 240.597656 226.636719 239.648438 C 226.824219 238.703125 227.105469 237.785156 227.472656 236.894531 C 227.84375 236.003906 228.296875 235.15625 228.832031 234.355469 C 229.367188 233.550781 229.976562 232.808594 230.660156 232.125 C 231.339844 231.445312 232.082031 230.835938 232.886719 230.300781 C 233.6875 229.761719 234.535156 229.3125 235.425781 228.941406 C 236.316406 228.574219 237.234375 228.292969 238.183594 228.105469 C 239.128906 227.917969 240.082031 227.824219 241.046875 227.824219 C 242.011719 227.824219 242.96875 227.917969 243.914062 228.105469 C 244.859375 228.292969 245.78125 228.574219 246.671875 228.941406 C 247.5625 229.3125 248.410156 229.761719 249.210938 230.300781 C 250.015625 230.835938 250.757812 231.445312 251.4375 232.125 L 356.734375 337.496094 C 357.242188 338.007812 357.707031 338.550781 358.136719 339.128906 C 358.5625 339.710938 358.945312 340.316406 359.285156 340.953125 C 359.621094 341.589844 359.914062 342.246094 360.152344 342.925781 C 360.394531 343.601562 360.585938 344.292969 360.726562 345 C 360.863281 345.707031 360.953125 346.421875 360.988281 347.140625 C 361.023438 347.859375 361.003906 348.574219 360.933594 349.292969 C 360.863281 350.007812 360.738281 350.714844 360.566406 351.414062 C 360.390625 352.113281 360.164062 352.796875 359.890625 353.460938 C 359.613281 354.125 359.292969 354.765625 358.921875 355.386719 C 358.554688 356.003906 358.140625 356.589844 357.683594 357.148438 C 357.230469 357.707031 356.734375 358.226562 356.203125 358.710938 C 355.667969 359.195312 355.105469 359.636719 354.507812 360.039062 C 353.910156 360.441406 353.285156 360.796875 352.636719 361.105469 C 351.984375 361.417969 351.316406 361.675781 350.628906 361.886719 C 349.941406 362.097656 349.238281 362.257812 348.527344 362.367188 C 347.816406 362.476562 347.101562 362.53125 346.378906 362.535156 Z M 346.378906 362.535156 " fill-opacity="1" fill-rule="nonzero"/></g><g clip-path="url(#484d21bdde)"><path fill="#ff1c1c" d="M 259.035156 141.980469 L 53.039062 141.980469 C 60.820312 92.097656 103.96875 53.929688 156.035156 53.929688 C 208.101562 53.929688 251.25 92.097656 259.035156 141.980469 Z M 259.035156 141.980469 " fill-opacity="1" fill-rule="nonzero"/></g><g clip-path="url(#d4280ae5f3)"><path fill="#f1f2f2" d="M 259.035156 174.382812 C 251.25 224.265625 208.101562 262.429688 156.035156 262.429688 C 103.972656 262.429688 60.820312 224.265625 53.039062 174.382812 Z M 259.035156 174.382812 " fill-opacity="1" fill-rule="nonzero"/></g><g clip-path="url(#5e839a93b3)"><path fill="#000000" d="M 260.285156 158.140625 C 260.285156 161.355469 259.859375 164.515625 259.035156 167.597656 L 53.039062 167.597656 C 52.214844 164.515625 51.785156 161.355469 51.785156 158.140625 C 51.785156 154.921875 52.214844 151.761719 53.039062 148.679688 L 259.035156 148.679688 C 259.859375 151.761719 260.285156 154.921875 260.285156 158.140625 Z M 260.285156 158.140625 " fill-opacity="1" fill-rule="nonzero"/></g></svg>